<?xml version="1.0" standalone="no"?>
<!DOCTYPE svg PUBLIC "-//W3C//DTD SVG 20010904//EN"
 "http://www.w3.org/TR/2001/REC-SVG-20010904/DTD/svg10.dtd">
<svg version="1.0" xmlns="http://www.w3.org/2000/svg"
 width="700.000000pt" height="700.000000pt" viewBox="0 0 700.000000 700.000000"
 preserveAspectRatio="xMidYMid meet">
<metadata>
Created by potrace 1.14, written by Peter Selinger 2001-2017
</metadata>
<g transform="translate(0.000000,700.000000) scale(0.100000,-0.100000)"
fill="#000000" stroke="none">
<path d="M1217 6124 c-1 -1 -24 -5 -52 -8 -132 -17 -235 -44 -345 -89 -429
-177 -742 -577 -808 -1032 -4 -27 -7 -707 -7 -1510 0 -1371 1 -1465 18 -1545
77 -359 276 -653 575 -848 161 -105 317 -166 503 -198 98 -17 238 -18 2399
-18 2164 0 2301 1 2400 18 217 37 395 114 571 247 285 214 460 510 518 874 6
37 9 619 7 1520 -2 1360 -3 1465 -20 1535 -56 236 -141 409 -292 590 -65 79
-83 96 -177 173 -168 137 -395 240 -597 272 -19 3 -48 8 -65 12 -24 5 -4622
12 -4628 7z m2132 -878 c-2 -2 -31 -7 -64 -11 -122 -13 -326 -63 -410 -100
-16 -7 -59 -26 -95 -41 -303 -131 -592 -387 -777 -689 -102 -165 -182 -373
-218 -559 -27 -140 -30 -173 -29 -356 1 -291 45 -487 164 -736 142 -298 333
-520 610 -709 135 -92 394 -209 530 -239 88 -20 173 -35 225 -41 33 -4 62 -9
64 -11 2 -2 -466 -4 -1040 -4 -1138 0 -1120 -1 -1219 57 -95 56 -170 154 -201
263 -10 36 -13 336 -14 1420 -1 1495 -4 1426 53 1535 54 107 183 200 302 218
33 5 2125 8 2119 3z m2433 -7 c167 -35 298 -165 332 -329 17 -86 14 -2778 -3
-2840 -33 -113 -120 -224 -215 -270 -106 -51 -77 -50 -1195 -50 -575 0 -1043
2 -1040 4 2 2 27 6 55 10 293 34 586 153 835 337 105 78 267 239 346 344 138
184 270 466 309 660 2 11 6 31 9 45 26 131 30 185 29 365 -1 239 -29 398 -109
604 l-32 83 -801 -803 -801 -802 -445 444 -445 445 232 232 232 232 213 -212
212 -212 612 613 613 612 -35 31 c-29 25 -98 82 -168 139 -30 25 -183 116
-247 147 -163 80 -357 140 -536 166 -83 12 23 14 948 15 732 1 1058 -2 1095
-10z"/>
</g>
</svg>
