<svg xmlns="http://www.w3.org/2000/svg" width="128" height="128" version="1.0" enable-background="new"><defs><linearGradient id="a"><stop offset="0" stop-color="#d5d3cf"/><stop offset="1" stop-color="#f6f5f4"/></linearGradient><linearGradient id="b"><stop offset="0" stop-color="#d5d3cf"/><stop offset="1" stop-color="#949390"/></linearGradient><linearGradient id="c"><stop offset="0" stop-color="#9a9996"/><stop offset="1" stop-color="#77767b"/></linearGradient><filter id="e" y="-.18" color-interpolation-filters="sRGB"><feFlood flood-opacity=".498" flood-color="#000" result="flood"/><feComposite in="flood" in2="SourceGraphic" operator="in" result="composite1"/><feGaussianBlur in="composite1" stdDeviation="1.1" result="blur"/><feOffset dy="-.5" result="offset"/><feComposite in="SourceGraphic" in2="offset" result="composite2"/></filter><mask maskUnits="userSpaceOnUse" id="d"><rect width="62.67" height="36.495" x="32.67" y="36.383" rx="0" ry="0" opacity=".996" fill="#f6f5f4" stroke-width=".798" paint-order="markers fill stroke"/></mask></defs><rect width="61.673" height="100.659" x="33.169" y="9.966" ry="32.373" rx="30.837" opacity=".996" fill="#f6d32d" stroke="#f5c211" enable-background="new"/><rect width="87.01" height="59.923" x="20.495" y="56.077" ry="6.455" opacity=".996" fill="#deddda" enable-background="new"/><path style="line-height:normal;font-variant-ligatures:normal;font-variant-position:normal;font-variant-caps:normal;font-variant-numeric:normal;font-variant-alternates:normal;font-variant-east-asian:normal;font-feature-settings:normal;font-variation-settings:normal;text-indent:0;text-align:start;text-decoration-line:none;text-decoration-style:solid;text-decoration-color:#000;text-transform:none;text-orientation:mixed;white-space:normal;shape-padding:0;shape-margin:0;inline-size:0;isolation:auto;mix-blend-mode:normal;solid-color:#000;solid-opacity:1" d="M20.494 51.884v14.049h87.012V51.884L96.629 42.89l-10.876 8.994-10.877-8.994L64 51.884 53.124 42.89l-10.877 8.994-10.876-8.994z" mask="url(#d)" color="#000" font-weight="400" font-family="sans-serif" overflow="visible" fill="#fff" paint-order="markers fill stroke" filter="url(#e)" enable-background="accumulate"/><g fill="#fff"><rect width="87.01" height="55.923" x="20.495" y="56.077" ry="6.024" opacity=".996" enable-background="new"/><path style="line-height:normal;font-variant-ligatures:normal;font-variant-position:normal;font-variant-caps:normal;font-variant-numeric:normal;font-variant-alternates:normal;font-variant-east-asian:normal;font-feature-settings:normal;font-variation-settings:normal;text-indent:0;text-align:start;text-decoration-line:none;text-decoration-style:solid;text-decoration-color:#000;text-transform:none;text-orientation:mixed;white-space:normal;shape-padding:0;shape-margin:0;inline-size:0;isolation:auto;mix-blend-mode:normal;solid-color:#000;solid-opacity:1" d="M20.494 51.884v14.049h87.012V51.884L96.629 42.89l-10.876 8.994-10.877-8.994L64 51.884 53.124 42.89l-10.877 8.994-10.876-8.994z" color="#000" font-weight="400" font-family="sans-serif" overflow="visible" paint-order="markers fill stroke" enable-background="accumulate"/></g><g style="line-height:1.25"><path d="M61.127 71.927h9.403l2.031-11.432h4.876l-2.031 11.432h5.107v4.623h-5.978L72.56 87.733h7.952v4.623H71.75l-2.032 11.433h-4.875l2.031-11.433H57.47l-2.031 11.433h-4.876l2.031-11.433h-5.107v-4.623h5.92l1.974-11.183h-7.894v-4.623h8.764l2.032-11.432h4.875zm-2.844 15.806h9.403l2.031-11.183h-9.403z" style="-inkscape-font-specification:Ubuntu" font-family="Ubuntu" aria-label="#" font-weight="400" font-size="60.217" fill="#f6f5f4" stroke-width="1.505"/></g></svg>
