<?xml version="1.0" encoding="UTF-8"?>
<svg height="16px" viewBox="0 0 16 16" width="16px" xmlns="http://www.w3.org/2000/svg">
    <g fill="#241f31">
        <path d="m 3 2 c -1.644531 0 -3 1.355469 -3 3 v 6 c 0 1.644531 1.355469 3 3 3 h 10 c 1.644531 0 3 -1.355469 3 -3 v -6 c 0 -1.644531 -1.355469 -3 -3 -3 z m 0 2 h 10 c 0.570312 0 1 0.429688 1 1 v 6 c 0 0.570312 -0.429688 1 -1 1 h -10 c -0.570312 0 -1 -0.429688 -1 -1 v -6 c 0 -0.570312 0.429688 -1 1 -1 z m 0 0"/>
        <path d="m 8 4 c -2.210938 0 -4 1.789062 -4 4 s 1.789062 4 4 4 s 4 -1.789062 4 -4 c 0 -0.550781 -0.113281 -1.097656 -0.335938 -1.605469 l -3.664062 3.667969 l -2.03125 -2.03125 l 1.0625 -1.0625 l 0.96875 0.96875 l 2.796875 -2.792969 c -0.746094 -0.734375 -1.75 -1.144531 -2.796875 -1.144531 z m 0 0"/>
    </g>
</svg>
