<svg width="16" height="16" version="1.1" viewBox="0 0 4.2333 4.2333" xmlns="http://www.w3.org/2000/svg">
 <path d="m2.1167 2.6667e-8c-0.66982 0-1.2092 0.56599-1.2092 1.2692v0.080099l0.35605 0.29404 0.42633-0.35243 0.42685 0.35243 0.42633-0.35243 0.42633 0.35243 0.35657-0.29456v-0.079582c0-0.70319-0.53941-1.2692-1.2092-1.2692zm-1.2795 1.5234-0.42633 0.35295v2.1208c0 0.13086 0.10531 0.23616 0.23616 0.23616h2.9394c0.13086 0 0.23616-0.10531 0.23616-0.23616v-2.1208l-0.42633-0.35295-0.42685 0.35295-0.42633-0.35295-0.42633 0.35295-0.42633-0.35295-0.42633 0.35295zm1.0552 0.6904h0.1912l-0.079582 0.44803h0.36845l0.080098-0.44803h0.19069l-0.079582 0.44803h0.2005v0.18138h-0.23461l-0.076998 0.43873h0.31161v0.18138h-0.34365l-0.079582 0.44803h-0.1912l0.079582-0.44803h-0.36845l-0.080098 0.44803h-0.19069l0.079582-0.44803h-0.2005v-0.18138h0.23203l0.077515-0.43873h-0.30954v-0.18138h0.34365zm0.079582 0.62942-0.079582 0.43873h0.36897l0.079582-0.43873z" enable-background="new" opacity=".996" stroke-width=".039208"/>
</svg>
