<?xml version="1.0" standalone="no"?>
<!DOCTYPE svg PUBLIC "-//W3C//DTD SVG 20010904//EN"
 "http://www.w3.org/TR/2001/REC-SVG-20010904/DTD/svg10.dtd">
<svg version="1.0" xmlns="http://www.w3.org/2000/svg"
 width="700.000000pt" height="700.000000pt" viewBox="0 0 700.000000 700.000000"
 preserveAspectRatio="xMidYMid meet">
<metadata>
Created by potrace 1.14, written by Peter Selinger 2001-2017
</metadata>
<g transform="translate(0.000000,700.000000) scale(0.100000,-0.100000)"
fill="#000000" stroke="none">
<path d="M1217 6124 c-1 -1 -24 -5 -52 -8 -226 -29 -408 -98 -595 -227 -299
-206 -506 -537 -558 -894 -4 -27 -7 -707 -7 -1510 0 -1609 -4 -1508 61 -1705
22 -67 109 -257 124 -270 3 -3 18 -25 34 -50 88 -136 232 -277 386 -376 151
-97 311 -159 491 -190 98 -17 237 -18 2404 -18 2419 1 2310 -1 2503 38 51 11
182 60 256 98 198 99 366 244 497 427 98 139 164 287 212 481 21 84 21 97 24
1550 2 1563 3 1514 -46 1693 -131 477 -562 867 -1041 942 -19 3 -48 8 -65 12
-24 5 -4622 12 -4628 7z m2132 -878 c-2 -2 -31 -7 -64 -11 -122 -13 -326 -63
-410 -100 -16 -7 -59 -26 -95 -41 -329 -142 -644 -435 -822 -764 -74 -136
-147 -341 -173 -484 -8 -45 -17 -94 -21 -111 -3 -16 -7 -106 -9 -200 -8 -391
100 -742 322 -1053 100 -139 182 -224 362 -374 125 -105 409 -246 591 -293 99
-26 98 -26 215 -43 107 -17 84 -17 -930 -20 -913 -2 -1049 -1 -1111 13 -150
33 -270 149 -315 305 -10 36 -13 336 -14 1420 -1 1502 -4 1425 55 1540 49 95
174 188 283 209 41 8 2145 15 2136 7z m2433 -7 c169 -36 298 -164 332 -329 17
-86 14 -2778 -3 -2840 -33 -113 -120 -224 -215 -270 -106 -51 -78 -50 -1190
-50 -572 0 -1038 2 -1035 4 2 2 26 7 53 10 408 55 797 257 1070 557 139 153
291 404 351 579 1 3 4 12 8 20 26 68 69 253 83 360 10 71 10 370 1 435 -19
135 -57 297 -78 337 -5 10 -9 22 -9 28 0 5 -11 34 -24 65 l-25 55 -800 -802
-800 -801 -445 444 -445 445 232 232 233 233 212 -213 212 -212 612 612 613
612 -30 28 c-24 23 -84 71 -171 142 -35 28 -164 105 -235 141 -169 84 -357
144 -549 173 -86 13 3 14 947 15 740 1 1057 -2 1095 -10z m-2125 -3485 c-3 -3
-12 -4 -19 -1 -8 3 -5 6 6 6 11 1 17 -2 13 -5z"/>
</g>
</svg>
