<svg xmlns="http://www.w3.org/2000/svg" viewBox="0 0 24 24"><path fill="#fff" d="M23.55 10.93 13.07.45a1.55 1.55 0 0 0-2.2 0L8.72 2.63l2.76 2.76a1.84 1.84 0 0 1 2.32 2.34l2.66 2.66a1.84 1.84 0 0 1 1.9 3.04 1.84 1.84 0 0 1-2.6 0 1.85 1.85 0 0 1-.4-2l-2.49-2.47v6.52c.18.09.34.2.49.35a1.85 1.85 0 0 1 0 2.6 1.84 1.84 0 0 1-2.61 0 1.83 1.83 0 0 1 0-2.6c.18-.18.39-.32.6-.4v-6.6a1.83 1.83 0 0 1-1-2.4L7.65 3.7l-7.2 7.18c-.6.6-.6 1.58 0 2.19l10.48 10.48a1.54 1.54 0 0 0 2.19 0l10.43-10.43a1.54 1.54 0 0 0 0-2.19"/></svg>